<svg width="114" height="114" viewBox="0 0 114 114" fill="none" xmlns="http://www.w3.org/2000/svg">
<g clip-path="url(#clip0)">
<path d="M19.95 74.8125C28.6069 74.8125 35.625 83.5852 35.625 94.4063C35.625 105.227 28.6069 114 19.95 114C11.2931 114 4.27499 105.227 4.27499 94.4063C4.27499 83.5852 11.2931 74.8125 19.95 74.8125ZM19.95 99.75C22.3066 99.75 24.225 97.352 24.225 94.4063C24.225 91.4605 22.3066 89.0625 19.95 89.0625C17.5934 89.0625 15.675 91.4605 15.675 94.4063C15.675 97.352 17.5934 99.75 19.95 99.75ZM5.7 35.625H17.1L17.1 26.6742C17.1 23.5303 16.2628 20.4933 14.7576 18.0263C13.9703 16.7348 14.1253 14.8957 14.9928 13.6867L18.8456 8.30508C20.0319 6.64629 22.1089 6.7643 23.2453 8.47876C26.6154 13.5598 28.5 19.9968 28.5 26.6742L28.5 35.625H46.7275L56.7186 6.48821C57.3749 4.56185 58.4702 2.91949 59.8679 1.76576C61.2657 0.612031 62.9042 -0.0020594 64.5792 5.1888e-06L88.35 5.1888e-06C93.065 5.1888e-06 96.9 4.79379 96.9 10.6875L96.9 43.3111C98.4372 41.8126 100.633 41.8727 102.046 43.6384L107.587 50.5652C109.118 52.4779 109.118 55.5795 107.587 57.4921L106.686 58.6187C107.575 60.6805 108.282 62.8091 108.808 65.0134H110.081C112.245 65.0134 114 67.2066 114 69.9118L114 79.7087C114 82.414 112.245 84.6072 110.081 84.6072H108.809C108.282 86.8137 107.577 88.94 106.688 91.0041L107.589 92.1307C109.119 94.0433 109.119 97.1449 107.589 99.0575L102.048 105.984C100.518 107.897 98.0364 107.897 96.5063 105.984L95.605 104.858C93.9556 105.969 92.2527 106.853 90.4893 107.51V109.102C90.4893 111.807 88.7347 114 86.5705 114H78.733C76.5688 114 74.8143 111.807 74.8143 109.102V107.512C73.0508 106.855 71.348 105.971 69.6985 104.86L68.7972 105.987C67.2671 107.899 64.7858 107.899 63.2557 105.987L57.7143 99.0598C56.1842 97.1472 56.1842 94.0456 57.7143 92.1329L58.6156 91.0063C57.7267 88.9445 57.0196 86.8159 56.4941 84.6116H55.2187C53.0545 84.6116 51.3 82.4184 51.3 79.7132V78.3772H36.9538C33.0511 71.9224 26.9218 67.6897 19.95 67.6897C16.6297 67.6897 13.525 68.7162 10.7231 70.4061L1.67081 59.0908C0.602058 57.7548 0.00177765 55.9424 0.00177765 54.052L0.00177765 42.75C-7.62939e-06 38.8157 2.55253 35.625 5.7 35.625ZM82.65 92.625C90.5196 92.625 96.9 84.6495 96.9 74.8125C96.9 64.9756 90.5196 57 82.65 57C74.7804 57 68.4 64.9756 68.4 74.8125C68.4 84.6495 74.7804 92.625 82.65 92.625ZM78.7312 35.625H85.5L85.5 14.25L66.4602 14.25L59.1304 35.625H78.7312Z" fill="black"/>
</g>
<defs>
<clipPath id="clip0">
<rect width="114" height="114" fill="white"/>
</clipPath>
</defs>
</svg>
